<svg xmlns="http://www.w3.org/2000/svg" viewBox="0 22.75 146.3000030517578 42.650001525878906" data-asc="1.303" width="146.3000030517578" height="42.650001525878906"><defs/><g><g fill="#eceff4"><g transform="translate(0, 0)"><path d="M11.65 65.40Q9.80 65.40 9.00 64.57Q8.20 63.75 8.20 61.45Q8.20 59.90 8.53 57.47Q8.85 55.05 9.60 50.80Q10.90 42.95 11.65 37.20Q12.10 33.60 12.10 31.20Q12.10 28.95 10.45 28.95Q9.15 28.95 7.33 30.27Q5.50 31.60 3.30 34.50Q2.60 35.45 1.75 35.45Q1.05 35.45 0.53 34.77Q0 34.10 0 33.25Q0 32.45 0.33 31.62Q0.65 30.80 1.40 29.75Q3.80 26.40 6.75 24.57Q9.70 22.75 12.65 22.75Q15.40 22.75 16.88 24.50Q18.35 26.25 18.35 29.60Q18.35 30.95 18.10 32.77Q17.85 34.60 17.65 35.75Q17.45 36.90 17.35 37.35Q20.20 29.20 23.75 25.97Q27.30 22.75 31.55 22.75Q34.80 22.75 36.67 25.05Q38.55 27.35 38.55 31.55Q38.55 33.20 38.10 35.65Q40.60 28.75 43.95 25.75Q47.30 22.75 51.65 22.75Q55.15 22.75 57.02 25.00Q58.90 27.25 58.90 31.30Q58.90 33.50 58.25 36.65L55.20 50.95Q54.70 53.45 54.70 55.25Q54.70 57.35 55.67 58.40Q56.65 59.45 58.40 59.45Q60.05 59.45 61.63 58.35Q63.20 57.25 65.35 54.70Q65.95 54.00 66.70 54.00Q67.35 54.00 67.72 54.60Q68.10 55.20 68.10 56.25Q68.10 58.20 67.15 59.35Q64.55 62.50 62 63.95Q59.45 65.40 56.65 65.40Q52.40 65.40 50 62.87Q47.60 60.35 47.60 56.10Q47.60 53.15 48.80 47.55L50.80 38.40Q50.90 37.95 51.15 36.80Q51.40 35.65 51.55 34.62Q51.70 33.60 51.70 32.60Q51.70 30.85 51.02 29.97Q50.35 29.10 49.10 29.10Q46.75 29.10 44.17 32.12Q41.60 35.15 39.27 42.15Q36.95 49.15 35.50 60.35Q35.15 63.35 34.27 64.37Q33.40 65.40 31.45 65.40Q29.75 65.40 28.98 64.60Q28.20 63.80 28.20 61.60Q28.20 59.55 28.75 56.22Q29.30 52.90 30.15 48.40Q32.45 36.30 32.45 32.80Q32.45 30.90 31.73 30.00Q31.00 29.10 29.55 29.10Q27.10 29.10 24.50 31.87Q21.90 34.65 19.43 41.72Q16.95 48.80 15.30 60.85Q14.95 63.40 14.28 64.40Q13.60 65.40 11.65 65.40ZM70.20 65.40Q67.10 65.40 65.25 63.15Q63.40 60.90 63.40 57.25Q63.40 53.25 65.25 49.67Q67.10 46.10 70.17 43.92Q73.25 41.75 76.70 41.75Q77.80 41.75 78.17 42.17Q78.55 42.60 78.80 43.70Q79.85 43.50 81 43.50Q83.45 43.50 83.45 45.25Q83.45 46.30 82.70 50.25Q81.55 56.00 81.55 58.25Q81.55 59.00 81.92 59.45Q82.30 59.90 82.90 59.90Q83.85 59.90 85.20 58.67Q86.55 57.45 88.85 54.70Q89.45 54.00 90.20 54.00Q90.85 54.00 91.22 54.60Q91.60 55.20 91.60 56.25Q91.60 58.25 90.65 59.35Q88.60 61.90 86.30 63.65Q84 65.40 81.85 65.40Q80.20 65.40 78.83 64.27Q77.45 63.15 76.75 61.20Q74.15 65.40 70.20 65.40M72 60.35Q73.10 60.35 74.10 59.05Q75.10 57.75 75.55 55.60L77.40 46.40Q75.30 46.45 73.53 47.97Q71.75 49.50 70.70 52.00Q69.65 54.50 69.65 57.30Q69.65 58.85 70.28 59.60Q70.90 60.35 72 60.35M77.15 38.55Q76.45 38.55 75.92 38.02Q75.40 37.50 75.40 36.75Q75.40 36.40 75.65 35.80L80.30 25.40Q80.75 24.40 81.47 23.92Q82.20 23.45 83.10 23.45Q84.35 23.45 85.33 24.35Q86.30 25.25 86.30 26.60Q86.30 28.00 85.20 29.40L78.75 37.70Q78.10 38.55 77.15 38.55ZM94.10 38.55Q92 38.55 90.95 37.57Q89.90 36.60 89.90 34.85Q89.90 33.10 91.28 31.92Q92.65 30.75 94.70 30.75Q96.55 30.75 97.70 31.65Q98.85 32.55 98.85 34.20Q98.85 36.20 97.55 37.37Q96.25 38.55 94.10 38.55M93.70 65.40Q90.45 65.40 88.98 63.10Q87.50 60.80 87.50 57.00Q87.50 54.75 88.08 51.22Q88.65 47.70 89.55 44.65Q90 43.05 90.75 42.45Q91.50 41.85 93.15 41.85Q95.70 41.85 95.70 43.55Q95.70 44.80 94.75 49.35Q93.55 54.85 93.55 56.80Q93.55 58.30 93.95 59.10Q94.35 59.90 95.30 59.90Q96.20 59.90 97.55 58.65Q98.90 57.40 101.15 54.70Q101.75 54.00 102.50 54.00Q103.15 54.00 103.53 54.60Q103.90 55.20 103.90 56.25Q103.90 58.25 102.95 59.35Q98 65.40 93.70 65.40ZM103.40 65.40Q101.50 65.40 100.73 63.40Q99.95 61.40 99.95 57.00Q99.95 50.50 101.80 44.65Q102.25 43.20 103.28 42.52Q104.30 41.85 106.15 41.85Q107.15 41.85 107.55 42.10Q107.95 42.35 107.95 43.05Q107.95 43.85 107.20 46.65Q106.70 48.65 106.40 50.15Q106.10 51.65 105.90 53.85Q107.55 49.55 109.60 46.85Q111.65 44.15 113.63 43.00Q115.60 41.85 117.25 41.85Q120.50 41.85 120.50 45.10Q120.50 45.75 120.05 48.25Q119.65 50.25 119.65 50.75Q119.65 52.50 120.90 52.50Q122.30 52.50 124.50 50.30Q125.15 49.65 125.85 49.65Q126.50 49.65 126.88 50.22Q127.25 50.80 127.25 51.75Q127.25 53.60 126.25 54.65Q124.85 56.10 122.98 57.12Q121.10 58.15 119 58.15Q116.35 58.15 114.98 56.80Q113.60 55.45 113.60 53.15Q113.60 52.40 113.75 51.65Q113.85 50.65 113.85 50.30Q113.85 49.50 113.30 49.50Q112.55 49.50 111.33 51.17Q110.10 52.85 108.90 55.60Q107.70 58.35 106.95 61.40Q106.40 63.75 105.67 64.57Q104.95 65.40 103.40 65.40ZM144.90 54.00Q145.55 54.00 145.93 54.60Q146.30 55.20 146.30 56.25Q146.30 58.25 145.35 59.35Q143.50 61.60 140.13 63.50Q136.75 65.40 132.90 65.40Q127.65 65.40 124.75 62.55Q121.85 59.70 121.85 54.75Q121.85 51.30 123.30 48.32Q124.75 45.35 127.33 43.60Q129.90 41.85 133.15 41.85Q136.05 41.85 137.80 43.57Q139.55 45.30 139.55 48.25Q139.55 51.70 137.07 54.17Q134.60 56.65 128.70 58.10Q129.95 60.40 133.45 60.40Q135.70 60.40 138.57 58.82Q141.45 57.25 143.55 54.70Q144.15 54.00 144.90 54.00M132.30 46.75Q130.45 46.75 129.18 48.90Q127.90 51.05 127.90 54.10L127.90 54.20Q130.85 53.50 132.55 52.10Q134.25 50.70 134.25 48.85Q134.25 47.90 133.72 47.32Q133.20 46.75 132.30 46.75Z"/></g></g></g></svg>